HIERARCHY
ROOT Hips
{
  OFFSET 10.478 79.1653 27.3549
  CHANNELS 6 Xposition Yposition Zposition Zrotation Xrotation Yrotation
  JOINT RightUpLeg
  {
    OFFSET -8.9458 -8.66707 0.101652
    CHANNELS 3 Zrotation Xrotation Yrotation
    JOINT RightLeg
    {
      OFFSET 0 -44.4227 1.3727
      CHANNELS 3 Zrotation Xrotation Yrotation
      JOINT RightFoot
      {
        OFFSET 0.253549 -42.0924 -1.46059
        CHANNELS 3 Zrotation Xrotation Yrotation
        JOINT RightToes
        {
          OFFSET 0.04 -4.41509 8.4991
          CHANNELS 3 Zrotation Xrotation Yrotation
          End Site
          {
            OFFSET -0.08 -0.137448 9.77979
          }
        }
      }
    }
  }
  JOINT Spine
  {
    OFFSET 0 11.8905 0
    CHANNELS 3 Zrotation Xrotation Yrotation
    JOINT Spine1
    {
      OFFSET 0 25.6574 0.127663
      CHANNELS 3 Zrotation Xrotation Yrotation
      JOINT HEad
      {
        OFFSET 0 8.73416 0.011341
        CHANNELS 3 Zrotation Xrotation Yrotation
        End Site
        {
          OFFSET -0.29 12.7742 2.51395
        }
      }
      JOINT LeftShoulder1
      {
        OFFSET 8.99 -0.362252 -0.22
        CHANNELS 3 Zrotation Xrotation Yrotation
        JOINT LeftArm
        {
          OFFSET 10.2827 -0.00338 0.322123
          CHANNELS 3 Zrotation Xrotation Yrotation
          JOINT LeftForeArm
          {
            OFFSET 32.7669 0.099144 -1.42434
            CHANNELS 3 Zrotation Xrotation Yrotation
            JOINT LeftHand
            {
              OFFSET 27.5643 0.085362 1.02216
              CHANNELS 3 Zrotation Xrotation Yrotation
              End Site
              {
                OFFSET 16.7443 -0.6 1.50291
              }
            }
          }
        }
      }
      JOINT RightShoulder
      {
        OFFSET -8.99 -0.362252 -0.22
        CHANNELS 3 Zrotation Xrotation Yrotation
        JOINT RightArm
        {
          OFFSET -10.2827 -0.00338 0.322123
          CHANNELS 3 Zrotation Xrotation Yrotation
          JOINT RightForeArm
          {
            OFFSET -32.8971 0.099144 -1.42434
            CHANNELS 3 Zrotation Xrotation Yrotation
            JOINT RightHand
            {
              OFFSET -27.4921 0.085362 1.02216
              CHANNELS 3 Zrotation Xrotation Yrotation
              End Site
              {
                OFFSET -16.6312 -0.6 1.50291
              }
            }
          }
        }
      }
    }
  }
  JOINT LeftUpLeg
  {
    OFFSET 8.9458 -8.66707 0.101652
    CHANNELS 3 Zrotation Xrotation Yrotation
    JOINT LeftLeg
    {
      OFFSET 0 -44.4227 1.3727
      CHANNELS 3 Zrotation Xrotation Yrotation
      JOINT LeftFoot
      {
        OFFSET -0.253549 -42.0924 -1.46059
        CHANNELS 3 Zrotation Xrotation Yrotation
        JOINT LeftToes
        {
          OFFSET -0.04 -4.41509 8.4991
          CHANNELS 3 Zrotation Xrotation Yrotation
          End Site
          {
            OFFSET 0.08 -0.047448 9.77979
          }
        }
      }
    }
  }
}
MOTION
Frames:	8
Frame Time:	0.0166667
25.3645 83.4591 11.9729 -2.49692 -0.596073 -128.388 -39.723 -39.3043 7.25958 36.3486 64.0026 -35.7643 12.7099 4.72774 -0.18508 0.0462048 0.000533403 0.662642 4.93359 9.20822 2.93147 -6.12035 17.0057 13.4934 14.7275 -5.19277 -33.5565 -1.59028e-015 1.59028e-015 3.18055e-015 -84.0727 -10.8606 -52.0846 -43.9892 64.3952 -86.0924 7.21815 19.4659 -2.26649 12.3952 -0.831809 -6.82667 -31.3106 -59.8458 -39.1131 -2.48493 37.2147 67.9476 -2.61487 19.3895 -10.6361 24.9712 -33.6915 -11.2666 -11.7888 63.4215 -6.10768 -31.0523 31.466 6.83746 -1.31575e-009 1.55994e-007 -4.86485e-009 
25.9033 83.4695 11.0738 -3.14434 -1.1743 -132.015 -37.5507 -40.0979 7.38887 26.5586 63.9801 -26.1807 12.4298 6.80245 -0.282285 0.0462048 0.000533403 0.662642 4.20162 9.03045 3.67741 -7.2884 16.3802 14.9072 14.559 -4.393 -33.0595 -1.32417e-031 2.38542e-015 3.18055e-015 -83.4851 -11.5451 -51.7751 -43.8787 64.5041 -86.152 7.21815 19.4659 -2.26649 11.0494 -0.420794 -4.36141 -28.1764 -62.2787 -34.6942 -2.70519 38.7656 71.06 -4.85594 19.4417 -8.4463 25.0602 -31.5321 -11.4763 -13.656 62.5943 -3.78217 -31.3757 31.2749 6.96962 -1.31575e-009 1.55994e-007 -4.86485e-009 
26.3884 83.5831 10.0889 -3.59727 -1.71091 -136.269 -35.2906 -41.3924 7.07116 17.6171 63.3673 -16.8742 12.3679 8.53511 -0.458577 0.0462048 0.000533403 0.662642 3.54068 8.79004 4.27047 -8.28777 15.6341 15.9661 14.265 -3.53977 -31.7694 -1.59028e-015 1.59028e-015 -3.18055e-015 -83.2582 -12.7878 -51.5425 -44.2444 64.7291 -85.8201 7.21815 19.4659 -2.26649 10.2491 -0.139239 -2.39795 -28.315 -69.296 -36.1017 -3.5258 46.36 78.3748 -7.2961 19.3985 -5.92805 24.9442 -29.0221 -12.0465 -15.6241 61.5141 -0.690372 -31.1228 31.2846 6.92183 -1.31575e-009 1.55994e-007 -4.86485e-009 
26.7884 83.8231 9.02749 -3.81929 -2.14728 -140.931 -32.9189 -42.9927 6.56439 10.3117 62.2748 -8.63877 12.5035 9.97548 -0.713096 0.0462048 0.000533403 0.662642 3.00001 8.50179 4.63181 -8.98599 14.8358 16.5053 13.6944 -2.60686 -29.5913 2.64834e-031 4.77083e-015 -3.18055e-015 -83.5046 -14.7658 -51.4279 -45.2061 65.0896 -84.9794 7.21815 19.4659 -2.26649 10.0556 0.0283562 -1.13255 -38.0433 -79.8185 -49.7669 -5.93889 58.4461 89.5856 -8.88276 19.2942 -3.86266 24.5843 -26.2916 -12.9504 -17.4209 60.2411 2.85656 -30.3644 31.5537 6.74119 -1.31574e-009 1.55994e-007 -4.86485e-009 
27.0783 84.1956 7.90218 -3.78557 -2.44598 -145.854 -30.3584 -44.7144 6.04673 4.69278 60.8843 -1.53697 12.8395 11.1754 -1.03318 0.0462048 0.000533403 0.662642 2.59923 8.18428 4.71005 -9.27818 14.0567 16.4234 12.6814 -1.56437 -26.4286 -1.76556e-031 -1.59028e-015 -6.36111e-015 -84.2927 -17.6509 -51.527 -46.8334 65.5569 -83.5134 7.21815 19.4659 -2.26649 10.4238 0.0991599 -0.622304 -15.9361 -85.68 -31.4959 -9.17752 63.3398 101.128 -7.89201 19.3302 -4.02045 24.0147 -23.437 -14.1076 -18.9718 58.8548 6.67835 -29.1349 32.0958 6.45055 -1.31575e-009 1.55994e-007 -4.86485e-009 
27.2434 84.6862 6.72712 -3.49304 -2.60179 -150.963 -27.4884 -46.4089 5.62719 0.312515 59.3317 4.8468 13.3831 12.1215 -1.39481 0.0462048 0.000533403 0.662642 2.33259 7.85394 4.48552 -9.1125 13.3518 15.6914 11.1029 -0.423406 -22.2057 5.29669e-031 -3.18055e-015 9.54166e-015 -85.6427 -21.5521 -52.0167 -49.0827 66.0241 -81.3253 7.21815 19.4659 -2.26649 11.2127 0.0856556 -0.779981 53.1612 -83.3426 33.7436 -11.8176 64.5526 111.382 -5.34445 19.4373 -5.91812 23.3012 -20.5119 -15.3934 -20.3205 57.4271 10.6792 -27.4425 32.8857 6.05034 -1.31574e-009 1.55994e-007 -4.86485e-009 
27.2837 85.2621 5.51971 -2.96667 -2.64159 -156.217 -24.188 -47.9618 5.39518 -3.37498 57.6952 10.9866 14.123 12.6975 -1.75931 0.0462048 0.000533403 0.662642 2.18251 7.52361 3.96474 -8.50312 12.7524 14.3379 8.93812 0.741228 -16.9057 3.18055e-015 0 -3.18055e-015 -87.5483 -26.4608 -53.1701 -51.7025 66.2931 -78.405 7.21815 19.4659 -2.26649 12.2203 0.00273567 -1.40479 67.1929 -76.4084 43.8126 -13.941 64.78 120.161 -2.6741 19.4696 -8.30881 22.504 -17.5527 -16.6613 -21.5495 56.0162 14.8085 -25.2932 33.8582 5.52536 -1.31575e-009 1.55994e-007 -4.86485e-009 
27.2144 85.8791 4.30424 -2.25963 -2.61239 -161.55 -20.4097 -49.2795 5.45175 -6.72366 56.0285 17.1079 15.008 12.7327 -2.07419 0.0462048 0.000533403 0.662642 2.1284 7.20595 3.1734 -7.53148 12.2701 12.4293 6.30696 1.80589 -10.6153 -2.64834e-031 4.77083e-015 3.18055e-015 -90.0106 -32.2009 -55.355 -54.1129 66.0904 -74.9404 7.21815 19.4659 -2.26649 13.2392 -0.124174 -2.24625 68.261 -68.3627 41.49 -15.1044 63.9868 126.505 -1.08955 19.4488 -10.0945 21.6661 -14.6152 -17.7723 -22.7479 54.6686 19.0486 -22.7102 34.9062 4.85475 -1.31574e-009 1.55994e-007 -4.86485e-009 
